<svg width="200" height="200" viewBox="0 0 200 200" fill="none" xmlns="http://www.w3.org/2000/svg">
<g id="devicon-plain:illustrator">
<path id="Vector" fill-rule="evenodd" clip-rule="evenodd" d="M74.9297 107.812H98.9469C94.8125 93.75 90.7406 80.75 86.7344 67.5375C82.8469 80.7969 78.9032 93.75 74.9297 107.812ZM193.925 1.5625H4.48909C1.07346 1.5625 1.56253 2.30625 1.56253 5.60156V195.28C1.56253 198.572 1.07346 198.438 4.24847 198.438H194.166C197.339 198.438 198.438 198.572 198.438 195.278V5.84219C198.438 2.30625 197.341 1.5625 193.925 1.5625ZM120.778 150C118.22 150 115.653 149.792 113.108 149.975C111.272 150.113 110.658 149.341 110.169 147.747C107.803 140.042 105.289 132.341 102.922 124.637C102.445 123.087 101.764 122.522 100.084 122.542C91.4547 122.642 82.8203 122.633 74.1891 122.531C72.3719 122.509 71.536 122.994 71.0172 124.797C68.8203 132.459 66.4172 140.059 64.1969 147.714C63.7156 149.373 62.9844 149.953 61.2219 149.908C56.0375 149.778 50.8453 149.858 45.1688 149.858C46.6672 145.1 48.0266 140.7 49.4328 136.319C58.0485 109.444 66.6938 82.5687 75.2469 55.6766C75.8438 53.8047 76.6735 53.2281 78.5953 53.2703C84.6672 53.4047 90.7438 53.3047 96.8188 53.2703C97.9547 53.2625 98.7297 53.3297 99.1453 54.6203C109.309 86.0516 119.509 117.677 129.7 149.105C129.744 149.247 129.716 150 129.739 150H120.778ZM153.125 150H134.375V79.6875H153.125V150ZM143.203 70.2016C137.477 70.1937 133.377 66.2516 133.338 60.7172C133.3 55.1984 137.567 51.0938 143.347 51.0875C149.172 51.0812 153.277 55.0516 153.322 60.7297C153.363 66.2688 149.155 70.2109 143.203 70.2016Z" fill="black"/>
</g>
</svg>
