<svg width="200" height="200" viewBox="0 0 200 200" fill="none" xmlns="http://www.w3.org/2000/svg">
<g id="akar-icons:css-fill">
<path id="Vector" d="M62.5167 0H84.0001V8.98333H71.5001V17.9667H84.0001V26.95H62.5167V0ZM88.2917 0H109.783V7.81667H97.2834V9.375H109.783V27.3417H88.2917V19.1417H100.792V17.575H88.2917V0ZM114.083 0H135.558V7.81667H123.058V9.375H135.558V27.3417H114.083V19.1417H126.583V17.575H114.083V0Z" fill="black"/>
<path id="Vector_2" fill-rule="evenodd" clip-rule="evenodd" d="M99.925 200L42.0583 183.933L25 39.3083H175L157.95 183.917L99.925 200ZM58.725 104.775L60.3167 122.508H121.792L119.733 145.508L99.95 150.858H99.9333L80.1833 145.525L78.9167 131.383H61.1083L63.5917 159.233L99.925 169.317L136.317 159.233L140.75 109.533L141.183 104.775L144.383 68.8667H55.5333L57.15 86.6083H124.95L123.333 104.775H58.725Z" fill="black"/>
</g>
</svg>
