<svg width="25" height="25" viewBox="0 0 25 25" fill="none" xmlns="http://www.w3.org/2000/svg">
<path d="M22.5 12.5C22.5017 13.8172 22.2424 15.1216 21.737 16.3379C21.2316 17.5543 20.4901 18.6584 19.5555 19.5865C18.6285 20.5118 17.5283 21.2454 16.3177 21.7454C15.1071 22.2453 13.8098 22.5017 12.5 22.5C6.97701 22.5 2.50001 18.023 2.50001 12.5C2.49651 9.93589 3.48144 7.46909 5.25001 5.61251C6.18318 4.62781 7.30747 3.84388 8.55407 3.3087C9.80068 2.77352 11.1434 2.49834 12.5 2.50001C13.8098 2.49831 15.1071 2.75475 16.3177 3.25466C17.5283 3.75458 18.6285 4.48817 19.5555 5.41351C20.4901 6.34162 21.2316 7.44575 21.737 8.66208C22.2424 9.87842 22.5017 11.1829 22.5 12.5Z" stroke="#EECB84" stroke-width="2" stroke-linecap="round" stroke-linejoin="round"/>
<path d="M22.4999 12.5C21.0409 12.5 17.0159 11.95 13.4134 13.5315C9.4999 15.25 6.6664 17.9155 5.4314 19.5735" stroke="#EECB84" stroke-width="2" stroke-linecap="round" stroke-linejoin="round"/>
<path d="M8.75 3.22705C10.315 4.67155 13.73 8.34905 15 12.0001C16.27 15.6511 16.74 20.1401 17.03 21.4176" stroke="#EECB84" stroke-width="2" stroke-linecap="round" stroke-linejoin="round"/>
<path d="M2.5769 11.25C4.4659 11.364 9.4664 11.4665 12.6664 10.1C15.8664 8.73349 18.6199 6.21999 19.5644 5.42249M3.2499 16.3065C4.13106 18.4394 5.72026 20.2036 7.7499 21.302" stroke="#EECB84" stroke-width="2" stroke-linecap="round" stroke-linejoin="round"/>
<path d="M2.50001 12.5C2.49651 9.93589 3.48144 7.46909 5.25001 5.61251C6.18318 4.62781 7.30747 3.84388 8.55407 3.3087C9.80068 2.77352 11.1434 2.49834 12.5 2.50001M16.5 3.33201C17.6388 3.83028 18.675 4.53613 19.5555 5.41351C20.4901 6.34162 21.2316 7.44574 21.737 8.66208C22.2424 9.87842 22.5017 11.1829 22.5 12.5C22.5 13.731 22.2775 14.9105 21.87 16M12.5 22.5C13.8098 22.5017 15.1071 22.2453 16.3177 21.7454C17.5283 21.2454 18.6285 20.5118 19.5555 19.5865" stroke="#EECB84" stroke-width="2" stroke-linecap="round" stroke-linejoin="round"/>
</svg>
