<svg width="25" height="25" viewBox="0 0 25 25" fill="none" xmlns="http://www.w3.org/2000/svg">
<path d="M8.63325 2.5H17.0333C20.2333 2.5 22.8333 5.1 22.8333 8.3V16.7C22.8333 18.2383 22.2222 19.7135 21.1345 20.8012C20.0468 21.8889 18.5715 22.5 17.0333 22.5H8.63325C5.43325 22.5 2.83325 19.9 2.83325 16.7V8.3C2.83325 6.76174 3.44432 5.28649 4.53203 4.19878C5.61974 3.11107 7.095 2.5 8.63325 2.5ZM8.43325 4.5C7.47847 4.5 6.5628 4.87928 5.88767 5.55442C5.21254 6.22955 4.83325 7.14522 4.83325 8.1V16.9C4.83325 18.89 6.44325 20.5 8.43325 20.5H17.2333C18.188 20.5 19.1037 20.1207 19.7788 19.4456C20.454 18.7705 20.8333 17.8548 20.8333 16.9V8.1C20.8333 6.11 19.2233 4.5 17.2333 4.5H8.43325ZM18.0833 6C18.4148 6 18.7327 6.1317 18.9671 6.36612C19.2016 6.60054 19.3333 6.91848 19.3333 7.25C19.3333 7.58152 19.2016 7.89946 18.9671 8.13388C18.7327 8.3683 18.4148 8.5 18.0833 8.5C17.7517 8.5 17.4338 8.3683 17.1994 8.13388C16.9649 7.89946 16.8333 7.58152 16.8333 7.25C16.8333 6.91848 16.9649 6.60054 17.1994 6.36612C17.4338 6.1317 17.7517 6 18.0833 6ZM12.8333 7.5C14.1593 7.5 15.4311 8.02678 16.3688 8.96447C17.3065 9.90215 17.8333 11.1739 17.8333 12.5C17.8333 13.8261 17.3065 15.0979 16.3688 16.0355C15.4311 16.9732 14.1593 17.5 12.8333 17.5C11.5072 17.5 10.2354 16.9732 9.29772 16.0355C8.36004 15.0979 7.83325 13.8261 7.83325 12.5C7.83325 11.1739 8.36004 9.90215 9.29772 8.96447C10.2354 8.02678 11.5072 7.5 12.8333 7.5ZM12.8333 9.5C12.0376 9.5 11.2745 9.81607 10.7119 10.3787C10.1493 10.9413 9.83325 11.7044 9.83325 12.5C9.83325 13.2956 10.1493 14.0587 10.7119 14.6213C11.2745 15.1839 12.0376 15.5 12.8333 15.5C13.6289 15.5 14.392 15.1839 14.9546 14.6213C15.5172 14.0587 15.8333 13.2956 15.8333 12.5C15.8333 11.7044 15.5172 10.9413 14.9546 10.3787C14.392 9.81607 13.6289 9.5 12.8333 9.5Z" fill="#EECB84"/>
</svg>
