<svg width="200" height="200" viewBox="0 0 200 200" fill="none" xmlns="http://www.w3.org/2000/svg">
<g id="cib:js">
<path id="Vector" d="M12.5 12.5V187.5H187.5V12.5H12.5ZM107.738 148.981C107.738 166.012 97.7375 173.788 83.1688 173.788C70.0063 173.788 62.3875 166.994 58.4813 158.75L71.8813 150.663C74.4625 155.231 76.8063 159.1 82.4688 159.1C87.8562 159.1 91.2938 156.987 91.2938 148.75V92.85H107.738V148.981ZM146.637 173.788C131.363 173.788 121.481 166.525 116.675 156.988L130.075 149.256C133.594 155 138.2 159.256 146.288 159.256C153.081 159.256 157.462 155.856 157.462 151.131C157.462 145.506 153.006 143.512 145.469 140.194L141.369 138.438C129.494 133.4 121.644 127.031 121.644 113.631C121.644 101.287 131.056 91.9125 145.706 91.9125C156.175 91.9125 163.675 95.5438 169.069 105.075L156.256 113.281C153.444 108.244 150.394 106.25 145.669 106.25C140.869 106.25 137.819 109.3 137.819 113.281C137.819 118.206 140.869 120.194 147.938 123.281L152.038 125.038C166.025 131.013 173.875 137.15 173.875 150.894C173.875 165.662 162.231 173.781 146.644 173.781L146.637 173.788Z" fill="black"/>
</g>
</svg>
