<svg width="25" height="25" viewBox="0 0 25 25" fill="none" xmlns="http://www.w3.org/2000/svg">
<path d="M19.1667 3.5C19.6972 3.5 20.2059 3.71071 20.581 4.08579C20.956 4.46086 21.1667 4.96957 21.1667 5.5V19.5C21.1667 20.0304 20.956 20.5391 20.581 20.9142C20.2059 21.2893 19.6972 21.5 19.1667 21.5H5.16675C4.63632 21.5 4.12761 21.2893 3.75253 20.9142C3.37746 20.5391 3.16675 20.0304 3.16675 19.5V5.5C3.16675 4.96957 3.37746 4.46086 3.75253 4.08579C4.12761 3.71071 4.63632 3.5 5.16675 3.5H19.1667ZM18.6667 19V13.7C18.6667 12.8354 18.3233 12.0062 17.7119 11.3948C17.1005 10.7835 16.2714 10.44 15.4067 10.44C14.5567 10.44 13.5667 10.96 13.0867 11.74V10.63H10.2967V19H13.0867V14.07C13.0867 13.3 13.7067 12.67 14.4767 12.67C14.8481 12.67 15.2041 12.8175 15.4667 13.0801C15.7292 13.3426 15.8767 13.6987 15.8767 14.07V19H18.6667ZM7.04675 9.06C7.49231 9.06 7.91963 8.883 8.23469 8.56794C8.54975 8.25288 8.72675 7.82556 8.72675 7.38C8.72675 6.45 7.97675 5.69 7.04675 5.69C6.59853 5.69 6.16867 5.86805 5.85174 6.18499C5.5348 6.50193 5.35675 6.93178 5.35675 7.38C5.35675 8.31 6.11675 9.06 7.04675 9.06ZM8.43675 19V10.63H5.66675V19H8.43675Z" fill="#EECB84"/>
</svg>
