<svg width="200" height="200" viewBox="0 0 200 200" fill="none" xmlns="http://www.w3.org/2000/svg">
<g id="mdi:nodejs">
<path id="Vector" d="M100 15.4167C97.75 15.4167 95.4167 16 93.5 17.0833L31.5 52.9167C27.5 55.25 25 59.5833 25 64.25V135.75C25 140.417 27.5 144.75 31.5 147.083L47.75 156.417C55.6667 160.25 58.3333 160.333 62 160.333C73.6667 160.333 80.4167 153.25 80.4167 140.917V70.3333C80.4167 69.3333 79.5833 68.5 78.5833 68.5H70.8333C69.75 68.5 68.9167 69.3333 68.9167 70.3333V140.917C68.9167 146.417 63.25 151.833 54.1667 147.25L37.0833 137.5C36.8028 137.302 36.5733 137.04 36.4139 136.736C36.2546 136.431 36.1698 136.093 36.1667 135.75V64.25C36.1667 63.5 36.5 62.8333 37.0833 62.5L99.0833 26.75C99.5833 26.4167 100.417 26.4167 100.917 26.75L162.917 62.5C163.5 62.8333 163.833 63.5 163.833 64.25V135.75C163.833 136.417 163.5 137.083 162.917 137.5L100.917 173.25C100.417 173.583 99.5833 173.583 99 173.25L83.3333 163.75C82.6667 163.5 82 163.417 81.5833 163.667C77.1667 166.167 76.3333 166.667 72.25 167.917C71.25 168.25 69.6667 168.833 72.8333 170.583L93.5 182.833C95.5 184 97.6667 184.583 100 184.583C102.333 184.583 104.5 184 106.5 182.833L168.5 147.083C172.5 144.75 175 140.417 175 135.75V64.25C175 59.5833 172.5 55.25 168.5 52.9167L106.5 17.0833C104.583 16 102.333 15.4167 100 15.4167ZM116.667 66.6667C99 66.6667 88.4167 74.0833 88.4167 86.5833C88.4167 100 98.9167 103.917 115.917 105.583C136.167 107.583 137.75 110.583 137.75 114.583C137.75 121.5 132.167 124.417 119.167 124.417C102.667 124.417 99.1667 120.333 97.9167 112.167C97.8289 111.745 97.599 111.365 97.2653 111.092C96.9317 110.819 96.5144 110.669 96.0833 110.667H88.0833C87.0833 110.667 86.3333 111.417 86.3333 112.5C86.3333 122.833 92 135.333 119.167 135.333C138.75 135.333 150 127.583 150 114.083C150 100.667 141 97.1667 121.917 94.5833C102.667 92.0833 100.75 90.75 100.75 86.25C100.75 82.5 102.417 77.5 116.667 77.5C129.167 77.5 134.083 80.25 136 88.8333C136.167 89.6666 136.917 90.25 137.75 90.25H145.833C146.25 90.25 146.75 90.0833 147.083 89.6666C147.417 89.3333 147.667 88.8333 147.5 88.3333C146.333 73.5 136.5 66.6667 116.667 66.6667Z" fill="black"/>
</g>
</svg>
