<svg width="200" height="200" viewBox="0 0 200 200" fill="none" xmlns="http://www.w3.org/2000/svg">
<g id="mdi:react">
<path id="Vector" d="M100 84.25C108.583 84.25 115.583 91.25 115.583 100C115.583 108.333 108.583 115.417 100 115.417C91.4166 115.417 84.4166 108.333 84.4166 100C84.4166 91.25 91.4166 84.25 100 84.25ZM61.4166 166.667C66.6666 169.833 78.1666 165 91.4166 152.5C87.0833 147.583 82.8333 142.25 78.8333 136.667C72.1179 136.024 65.4417 135.023 58.8333 133.667C54.5833 151.5 56.1666 163.75 61.4166 166.667ZM67.3333 118.833L64.9166 114.583C64 117 63.0833 119.417 62.5 121.75C64.75 122.25 67.25 122.667 69.8333 123.083L67.3333 118.833ZM121.833 112.5L128.583 100L121.833 87.5C119.333 83.0833 116.667 79.1667 114.25 75.25C109.75 75 105 75 100 75C95 75 90.25 75 85.75 75.25C83.3333 79.1667 80.6666 83.0833 78.1666 87.5L71.4166 100L78.1666 112.5C80.6666 116.917 83.3333 120.833 85.75 124.75C90.25 125 95 125 100 125C105 125 109.75 125 114.25 124.75C116.667 120.833 119.333 116.917 121.833 112.5ZM100 56.5C98.4166 58.3333 96.75 60.25 95.0833 62.5H104.917C103.25 60.25 101.583 58.3333 100 56.5ZM100 143.5C101.583 141.667 103.25 139.75 104.917 137.5H95.0833C96.75 139.75 98.4166 141.667 100 143.5ZM138.5 33.3333C133.333 30.1667 121.833 35 108.583 47.5C112.917 52.4167 117.167 57.75 121.167 63.3333C128 64 134.75 65 141.167 66.3333C145.417 48.5 143.833 36.25 138.5 33.3333ZM132.667 81.1667L135.083 85.4167C136 83 136.917 80.5833 137.5 78.25C135.25 77.75 132.75 77.3333 130.167 76.9167L132.667 81.1667ZM144.75 22.4167C157 29.4167 158.333 47.8333 153.167 69.3333C174.333 75.5833 189.583 85.9167 189.583 100C189.583 114.083 174.333 124.417 153.167 130.667C158.333 152.167 157 170.583 144.75 177.583C132.583 184.583 116 176.583 100 161.333C84 176.583 67.4166 184.583 55.1666 177.583C43 170.583 41.6666 152.167 46.8333 130.667C25.6666 124.417 10.4166 114.083 10.4166 100C10.4166 85.9167 25.6666 75.5833 46.8333 69.3333C41.6666 47.8333 43 29.4167 55.1666 22.4167C67.4166 15.4167 84 23.4167 100 38.6667C116 23.4167 132.583 15.4167 144.75 22.4167ZM142.333 100C145.167 106.25 147.667 112.5 149.75 118.833C167.25 113.583 177.083 106.083 177.083 100C177.083 93.9167 167.25 86.4167 149.75 81.1667C147.667 87.5 145.167 93.75 142.333 100ZM57.6666 100C54.8333 93.75 52.3333 87.5 50.25 81.1667C32.75 86.4167 22.9166 93.9167 22.9166 100C22.9166 106.083 32.75 113.583 50.25 118.833C52.3333 112.5 54.8333 106.25 57.6666 100ZM132.667 118.833L130.167 123.083C132.75 122.667 135.25 122.25 137.5 121.75C136.917 119.417 136 117 135.083 114.583L132.667 118.833ZM108.583 152.5C121.833 165 133.333 169.833 138.5 166.667C143.833 163.75 145.417 151.5 141.167 133.667C134.75 135 128 136 121.167 136.667C117.167 142.25 112.917 147.583 108.583 152.5ZM67.3333 81.1667L69.8333 76.9167C67.25 77.3333 64.75 77.75 62.5 78.25C63.0833 80.5833 64 83 64.9166 85.4167L67.3333 81.1667ZM91.4166 47.5C78.1666 35 66.6666 30.1667 61.4166 33.3333C56.1666 36.25 54.5833 48.5 58.8333 66.3333C65.4417 64.9774 72.1179 63.976 78.8333 63.3333C82.8333 57.75 87.0833 52.4167 91.4166 47.5Z" fill="black"/>
</g>
</svg>
