<svg width="200" height="200" viewBox="0 0 200 200" fill="none" xmlns="http://www.w3.org/2000/svg">
<g id="devicon:nextjs-wordmark">
<path id="Vector" d="M47.1875 71.7188H84.8438V74.6875H50.625V97.1875H82.8125V100.156H50.625V124.844H85.3125V127.812H47.1875V71.7188ZM88.2812 71.7188H92.3438L110.156 96.4063L128.125 71.7188L152.812 40.4688L112.188 99.0625L133.125 127.812H128.906L110 101.562L90.9375 127.812H86.875L107.969 99.0625L88.2812 71.7188ZM134.688 74.6875V71.7188H177.656V74.6875H157.812V127.812H154.375V74.6875H134.688ZM0 71.7188H4.21875L63.9063 160.469L39.2188 127.812L3.59375 75.9375L3.4375 127.812H0V71.7188ZM177.344 123.906C178.125 123.906 178.594 123.438 178.594 122.656C178.594 121.875 178.125 121.406 177.344 121.406C176.562 121.406 176.094 121.875 176.094 122.656C176.094 123.438 176.719 123.906 177.344 123.906ZM180.781 120.625C180.781 122.656 182.344 124.062 184.531 124.062C186.875 124.062 188.281 122.656 188.281 120.156V111.562H186.406V120.156C186.406 121.562 185.781 122.187 184.531 122.187C183.438 122.187 182.656 121.562 182.656 120.469H180.781V120.625ZM190.625 120.469C190.781 122.656 192.5 124.062 195.312 124.062C198.125 124.062 200 122.656 200 120.312C200 118.438 198.906 117.5 196.562 116.875L195.156 116.562C193.594 116.25 192.969 115.625 192.969 114.844C192.969 113.75 193.906 112.969 195.469 112.969C196.875 112.969 197.812 113.594 197.969 114.844H199.844C199.688 112.812 197.969 111.406 195.469 111.406C192.812 111.406 191.094 112.812 191.094 115C191.094 116.719 192.031 117.812 194.219 118.281L195.781 118.594C197.344 118.906 198.125 119.531 198.125 120.469C198.125 121.562 197.031 122.344 195.469 122.344C193.906 122.344 192.656 121.562 192.5 120.469H190.625Z" fill="black"/>
</g>
</svg>
