<svg width="200" height="200" viewBox="0 0 200 200" fill="none" xmlns="http://www.w3.org/2000/svg">
<g id="solar:figma-outline">
<path id="Vector" fill-rule="evenodd" clip-rule="evenodd" d="M72.225 10.4167C64.9999 10.4113 57.9606 12.7061 52.1267 16.9685C46.2928 21.231 41.9673 27.24 39.7766 34.125C37.5858 41.01 37.6437 48.4137 39.9417 55.2636C42.2397 62.1136 46.6586 68.0542 52.5584 72.225C48.1164 75.3671 44.4938 79.5298 41.9952 84.3631C39.4966 89.1964 38.1951 94.5591 38.2 100C38.2 111.467 43.875 121.617 52.575 127.775C47.809 131.149 43.9914 135.692 41.4895 140.968C38.9877 146.245 37.8858 152.076 38.2899 157.901C38.6941 163.726 40.5906 169.35 43.797 174.23C47.0034 179.11 51.4118 183.083 56.598 185.766C61.7843 188.45 67.5738 189.753 73.4096 189.551C79.2454 189.349 84.9311 187.649 89.9195 184.614C94.9079 181.578 99.0313 177.31 101.893 172.22C104.754 167.13 106.258 161.389 106.258 155.55V126.35C109.798 129.218 113.878 131.345 118.255 132.607C122.633 133.868 127.219 134.238 131.742 133.694C136.265 133.149 140.633 131.702 144.586 129.438C148.539 127.174 151.998 124.139 154.756 120.514C157.515 116.888 159.517 112.745 160.644 108.331C161.771 103.917 162 99.3218 161.318 94.8175C160.636 90.3132 159.056 85.9917 156.673 82.1094C154.289 78.2271 151.15 74.863 147.442 72.2167C153.341 68.0458 157.76 62.1052 160.058 55.2553C162.356 48.4053 162.414 41.0017 160.223 34.1166C158.033 27.2316 153.707 21.2227 147.873 16.9602C142.039 12.6977 135 10.403 127.775 10.4083H72.2417L72.225 10.4167ZM93.75 121.525H72.225C69.3983 121.525 66.5993 120.968 63.9878 119.887C61.3762 118.805 59.0033 117.219 57.0046 115.22C55.0058 113.222 53.4202 110.849 52.3385 108.237C51.2568 105.626 50.7 102.827 50.7 100C50.7 97.1733 51.2568 94.3743 52.3385 91.7627C53.4202 89.1512 55.0058 86.7783 57.0046 84.7795C59.0033 82.7807 61.3762 81.1952 63.9878 80.1135C66.5993 79.0318 69.3983 78.475 72.225 78.475H93.75V121.525ZM72.225 65.975H93.75V22.9167H72.225C66.5151 22.9167 61.0391 25.1849 57.0016 29.2224C52.9641 33.2599 50.6959 38.7359 50.6959 44.4458C50.6959 50.1557 52.9641 55.6318 57.0016 59.6693C61.0391 63.7068 66.5151 65.975 72.225 65.975ZM149.308 44.4417C149.311 50.1476 147.047 55.6209 143.016 59.6587C138.984 63.6965 133.514 65.9684 127.808 65.975H106.25V22.9167H127.783C130.61 22.9167 133.409 23.4734 136.021 24.5552C138.632 25.6369 141.005 27.2224 143.004 29.2212C145.003 31.22 146.588 33.5929 147.67 36.2044C148.752 38.8159 149.308 41.615 149.308 44.4417ZM106.25 99.975C106.257 94.2749 108.524 88.8101 112.555 84.7795C116.585 80.7489 122.05 78.4816 127.75 78.475H127.8C132.055 78.4799 136.213 79.7459 139.749 82.113C143.285 84.4801 146.04 87.8421 147.666 91.7743C149.292 95.7064 149.717 100.032 148.885 104.205C148.054 108.379 146.004 112.212 142.995 115.22C139.987 118.229 136.154 120.279 131.98 121.11C127.807 121.942 123.481 121.517 119.549 119.891C115.617 118.265 112.255 115.51 109.888 111.974C107.521 108.438 106.255 104.28 106.25 100.025V99.975ZM72.225 134.025C67.9681 134.025 63.8068 135.287 60.2672 137.652C56.7277 140.017 53.9687 143.378 52.3393 147.311C50.7099 151.243 50.2831 155.571 51.113 159.746C51.9429 163.921 53.9921 167.757 57.0016 170.768C60.0111 173.778 63.8457 175.829 68.0206 176.66C72.1955 177.492 76.5232 177.067 80.4565 175.439C84.3898 173.811 87.7522 171.053 90.1184 167.515C92.4846 163.976 93.7484 159.815 93.75 155.558V134.025H72.225Z" fill="black"/>
</g>
</svg>
